<svg width="415" height="75" viewBox="0 0 415 75" fill="none" xmlns="http://www.w3.org/2000/svg">
<path d="M66.25 -67.0615C71.6645 -70.1876 78.3355 -70.1876 83.75 -67.0615L128.702 -41.1084C134.117 -37.9823 137.452 -32.2051 137.452 -25.9531V25.9531C137.452 32.2051 134.117 37.9823 128.702 41.1084L83.75 67.0615C78.5046 70.0899 72.0798 70.1849 66.7607 67.3457L66.25 67.0615L21.2979 41.1084C15.8835 37.9823 12.5479 32.2051 12.5479 25.9531V-25.9531C12.5479 -32.2051 15.8835 -37.9823 21.2979 -41.1084L66.25 -67.0615Z" stroke="white" stroke-opacity="0.42" stroke-width="5"/>
<path d="M199.25 -67.0615C204.665 -70.1876 211.336 -70.1876 216.75 -67.0615L261.702 -41.1084C267.117 -37.9823 270.452 -32.2051 270.452 -25.9531V25.9531C270.452 32.2051 267.117 37.9823 261.702 41.1084L216.75 67.0615C211.505 70.0899 205.08 70.1849 199.761 67.3457L199.25 67.0615L154.298 41.1084C148.883 37.9823 145.548 32.2051 145.548 25.9531V-25.9531C145.548 -32.2051 148.883 -37.9823 154.298 -41.1084L199.25 -67.0615Z" stroke="white" stroke-opacity="0.42" stroke-width="5"/>
<path d="M331.25 -67.0615C336.665 -70.1876 343.336 -70.1876 348.75 -67.0615L393.702 -41.1084C399.117 -37.9823 402.452 -32.2051 402.452 -25.9531V25.9531C402.452 32.2051 399.117 37.9823 393.702 41.1084L348.75 67.0615C343.505 70.0899 337.08 70.1849 331.761 67.3457L331.25 67.0615L286.298 41.1084C280.883 37.9823 277.548 32.2051 277.548 25.9531V-25.9531C277.548 -32.2051 280.883 -37.9823 286.298 -41.1084L331.25 -67.0615Z" stroke="white" stroke-opacity="0.42" stroke-width="5"/>
</svg>
