<svg width="415" height="75" viewBox="0 0 415 75" fill="none" xmlns="http://www.w3.org/2000/svg">
<path d="M66.25 7.93848C71.6645 4.81243 78.3355 4.81243 83.75 7.93848L128.702 33.8916C134.117 37.0177 137.452 42.7949 137.452 49.0469V100.953C137.452 107.205 134.117 112.982 128.702 116.108L83.75 142.062C78.5046 145.09 72.0798 145.185 66.7607 142.346L66.25 142.062L21.2979 116.108C15.8835 112.982 12.5479 107.205 12.5479 100.953V49.0469C12.5479 42.7949 15.8835 37.0177 21.2979 33.8916L66.25 7.93848Z" stroke="white" stroke-opacity="0.42" stroke-width="5"/>
<path d="M199.25 7.93848C204.665 4.81243 211.336 4.81243 216.75 7.93848L261.702 33.8916C267.117 37.0177 270.452 42.7949 270.452 49.0469V100.953C270.452 107.205 267.117 112.982 261.702 116.108L216.75 142.062C211.505 145.09 205.08 145.185 199.761 142.346L199.25 142.062L154.298 116.108C148.883 112.982 145.548 107.205 145.548 100.953V49.0469C145.548 42.7949 148.883 37.0177 154.298 33.8916L199.25 7.93848Z" stroke="white" stroke-opacity="0.42" stroke-width="5"/>
<path d="M331.25 7.93848C336.665 4.81243 343.336 4.81243 348.75 7.93848L393.702 33.8916C399.117 37.0177 402.452 42.7949 402.452 49.0469V100.953C402.452 107.205 399.117 112.982 393.702 116.108L348.75 142.062C343.505 145.09 337.08 145.185 331.761 142.346L331.25 142.062L286.298 116.108C280.883 112.982 277.548 107.205 277.548 100.953V49.0469C277.548 42.7949 280.883 37.0177 286.298 33.8916L331.25 7.93848Z" stroke="white" stroke-opacity="0.42" stroke-width="5"/>
</svg>
